<?xml version="1.0" encoding="UTF-8"?>
<svg width="336px" height="220px" viewBox="0 0 336 200" version="1.1" xmlns="http://www.w3.org/2000/svg" xmlns:xlink="http://www.w3.org/1999/xlink">
    <!-- Generator: Sketch 57.1 (83088) - https://sketch.com -->
    <title>Group 18</title>
    <desc>Created with Sketch.</desc>
    <defs>
        <linearGradient x1="78.3195631%" y1="6.99907664%" x2="39.1474561%" y2="60.5540166%" id="linearGradient-1">
            <stop stop-color="#86E0FA" offset="41%"></stop>
            <stop stop-color="#7AB9E7" offset="100%"></stop>
        </linearGradient>
        <linearGradient x1="33.6081146%" y1="65.7483941%" x2="68.8687475%" y2="34.8191317%" id="linearGradient-2">
            <stop stop-color="#E7C7D7" offset="0%"></stop>
            <stop stop-color="#ECD6D3" offset="42%"></stop>
            <stop stop-color="#F2EBCD" offset="100%"></stop>
        </linearGradient>
        <linearGradient x1="70.8974908%" y1="2.83334745%" x2="-22.5796191%" y2="166.163244%" id="linearGradient-3">
            <stop stop-color="#E7C7D7" offset="0%"></stop>
            <stop stop-color="#ECD6D3" offset="42%"></stop>
            <stop stop-color="#F2EBCD" offset="100%"></stop>
        </linearGradient>
        <linearGradient x1="597.802262%" y1="-1519.34027%" x2="688.178454%" y2="-1519.34027%" id="linearGradient-4">
            <stop stop-color="#E7C7D7" offset="0%"></stop>
            <stop stop-color="#ECD6D3" offset="42%"></stop>
            <stop stop-color="#F2EBCD" offset="100%"></stop>
        </linearGradient>
        <linearGradient x1="62.804655%" y1="55.8877166%" x2="38.5035119%" y2="42.631289%" id="linearGradient-5">
            <stop stop-color="#E7C7D7" offset="0%"></stop>
            <stop stop-color="#735858" offset="42%"></stop>
            <stop stop-color="#F2EBCD" offset="100%"></stop>
        </linearGradient>
        <linearGradient x1="23.7031022%" y1="67.2864569%" x2="67.9100733%" y2="40.452795%" id="linearGradient-6">
            <stop stop-color="#86E0FA" offset="0%"></stop>
            <stop stop-color="#7AB9E7" offset="100%"></stop>
        </linearGradient>
        <linearGradient x1="55.7933721%" y1="55.9849638%" x2="42.174153%" y2="40.5459186%" id="linearGradient-7">
            <stop stop-color="#2A5C90" offset="29%"></stop>
            <stop stop-color="#63ACD1" offset="50%"></stop>
            <stop stop-color="#86E0FA" offset="64%"></stop>
        </linearGradient>
        <linearGradient x1="67.2829299%" y1="62.2030621%" x2="25.3932312%" y2="36.0428544%" id="linearGradient-8">
            <stop stop-color="#2A5C90" offset="0%"></stop>
            <stop stop-color="#63ACD1" offset="100%"></stop>
            <stop stop-color="#86E0FA" offset="100%"></stop>
        </linearGradient>
        <linearGradient x1="40.0094605%" y1="44.3606463%" x2="52.189789%" y2="60.5858735%" id="linearGradient-9">
            <stop stop-color="#2A5C90" offset="0%"></stop>
            <stop stop-color="#63ACD1" offset="50%"></stop>
            <stop stop-color="#86E0FA" offset="100%"></stop>
        </linearGradient>
        <linearGradient x1="-14.5124503%" y1="1.14064626%" x2="65.1747856%" y2="61.401592%" id="linearGradient-10">
            <stop stop-color="#63ACD1" offset="0%"></stop>
            <stop stop-color="#2A5C90" offset="100%"></stop>
        </linearGradient>
        <linearGradient x1="32.797627%" y1="14.2356153%" x2="73.8026672%" y2="70.6989395%" id="linearGradient-11">
            <stop stop-color="#2A5C90" offset="29%"></stop>
            <stop stop-color="#63ACD1" offset="97%"></stop>
        </linearGradient>
        <linearGradient x1="-191.537133%" y1="20.4795812%" x2="-85.880829%" y2="26.7514133%" id="linearGradient-12">
            <stop stop-color="#2A5C90" offset="29%"></stop>
            <stop stop-color="#63ACD1" offset="50%"></stop>
            <stop stop-color="#86E0FA" offset="64%"></stop>
        </linearGradient>
        <linearGradient x1="39.3211921%" y1="80.8774834%" x2="139.403974%" y2="80.8774834%" id="linearGradient-13">
            <stop stop-color="#63ACD1" offset="0%"></stop>
            <stop stop-color="#2A5C90" offset="100%"></stop>
        </linearGradient>
        <linearGradient x1="-180.215232%" y1="-134.188742%" x2="-80.2152318%" y2="-134.188742%" id="linearGradient-14">
            <stop stop-color="#63ACD1" offset="0%"></stop>
            <stop stop-color="#2A5C90" offset="100%"></stop>
        </linearGradient>
        <linearGradient x1="-0.453408662%" y1="42.2802574%" x2="98.5984919%" y2="67.1155372%" id="linearGradient-15">
            <stop stop-color="#E7C7D7" offset="0%"></stop>
            <stop stop-color="#ECD6D3" offset="42%"></stop>
            <stop stop-color="#F2EBCD" offset="100%"></stop>
        </linearGradient>
        <linearGradient x1="-0.867757481%" y1="47.2932185%" x2="102.204338%" y2="53.0137089%" id="linearGradient-16">
            <stop stop-color="#86E0FA" offset="0%"></stop>
            <stop stop-color="#7AB9E7" offset="100%"></stop>
        </linearGradient>
        <linearGradient x1="22.6546976%" y1="36.2563162%" x2="78.5713101%" y2="64.6721752%" id="linearGradient-17">
            <stop stop-color="#E7C7D7" offset="0%"></stop>
            <stop stop-color="#ECD6D3" offset="42%"></stop>
            <stop stop-color="#F2EBCD" offset="100%"></stop>
        </linearGradient>
        <linearGradient x1="-105.579461%" y1="-908.731253%" x2="70.9664942%" y2="-908.731253%" id="linearGradient-18">
            <stop stop-color="#FFFFFF" stop-opacity="0" offset="0%"></stop>
            <stop stop-color="#FFFFFF" offset="50%"></stop>
            <stop stop-color="#FFFFFF" stop-opacity="0" offset="100%"></stop>
        </linearGradient>
    </defs>
    <g id="Page-1" stroke="none" stroke-width="1" fill="none" fill-rule="evenodd">
        <g id="ManyPixels-Home" transform="translate(-68.000000, -713.000000)">
            <g id="Group-18" transform="translate(71.000000, 712.000000)">
                <path d="M85.935472,579 C-10.0258051,487.832272 -25.6195126,409.260085 39.1543494,343.283439 C136.315142,244.318471 382.815673,192.136943 319.841085,131.85828" id="Path-12" stroke="#054C7B" stroke-width="4.5" opacity="0.5" stroke-dasharray="9"></path>
                <g id="1" transform="translate(248.500000, 75.500000) scale(-1, 1) translate(-248.500000, -75.500000) translate(167.000000, 0.000000)">
                    <polygon id="Path" fill="url(#linearGradient-1)" points="55.5157085 33.781582 82.8054702 8.24540184 86.5490578 13.3155393 61.5649494 41.7268584"></polygon>
                    <path d="M106.698732,96.2122869 L109.177929,100.082904 L111.192277,99.1059751 L111.378216,97.659131 L114.378045,97.3252439 C114.378045,97.3252439 119.231073,94.1285841 119.956238,92.3787683 C121.282609,89.1326437 117.508031,88.5885314 115.506079,89.6211082 C113.504128,90.653685 113.169436,91.8593884 112.208747,92.094346 C111.390102,92.2329243 110.557677,92.2723694 109.72955,92.2118248 L106.698732,96.2122869 Z" id="Path" fill="#161F4E"></path>
                    <path d="M58.484547,63.8994352 C58.484547,63.8994352 59.2345041,64.0107309 60.5298846,64.2209561 C61.5773454,64.4002658 63.0090817,64.6352234 64.6515497,64.9258289 C72.020963,66.2180956 84.2434045,68.5862208 91.395888,71.1089233 C95.0155158,72.395007 109.909292,90.0291924 109.909292,90.0291924 C109.99009,90.4057936 110.039841,90.7883628 110.058044,91.1730649 C110.151014,92.8610497 109.766738,95.8660336 106.060339,96.4472445 L93.0445541,82.0777329 C90.9935233,79.8070796 87.9218688,78.7390155 84.9003917,79.2458757 L76.5950816,80.6308888 L60.0340452,75.9441032 L55.4475306,74.6332872 L52.9683336,69.7610087 L58.484547,63.8994352 Z" id="Path" fill="#161F4E"></path>
                    <path d="M59.0485644,45.8200669 C59.2345041,46.7351649 58.8068426,50.0616698 59.0981483,51.2611901 C59.389454,52.4607104 61.5773454,60.0102688 61.5773454,60.0102688 C61.5773454,60.0102688 59.6435716,61.3210848 58.4225671,62.1310702 C53.402193,65.4452088 49.1255781,64.3075194 49.1255781,64.3075194 C49.1255781,64.3075194 50.3651766,60.028818 49.230944,57.4381015 C48.0967113,54.8473849 45.0472989,54.2476247 44.8923491,50.8345566 C44.6878154,46.9824887 42.1714303,46.5063904 44.2725499,43.8909415 C44.8923491,43.0995054 45.2580307,39.4143811 46.1319476,38.425086 C46.6029951,37.8871567 47.0864385,37.3677768 47.5760799,36.8854954 C47.9837178,36.4785307 48.4119378,36.0926145 48.8590644,35.7292568 C50.4643445,34.3998915 52.1378025,33.5095259 53.7306867,33.3549485 C55.1862407,33.2113249 56.6243777,33.761362 57.6106301,34.8388912 C60.8459822,38.2272269 58.8564266,44.904969 59.0485644,45.8200669 Z" id="Path" fill="url(#linearGradient-2)"></path> -->
                     <path d="M57.5548481,33.9670748 C60.8645762,37.3244951 62.5132423,42.5739423 62.7859539,46.0241091 C63.0276756,48.831234 64.453214,65.0062091 64.453214,65.0062091 L64.2114922,65.0865893 C63.9387806,65.1731526 63.4305452,65.3339131 62.6434001,65.5626876 C61.3542176,65.9522225 59.315078,66.5519827 56.3710315,67.3619681 C55.0322651,67.7267707 53.7988646,68.0235592 52.6522359,68.2646999 C50.6459475,68.7172341 48.6131303,69.0435203 46.5658071,69.2416288 C46.5658071,69.2416288 42.499924,53.351076 42.1590344,49.9565571 C41.5702251,44.2433779 45.4129805,38.6105788 47.489308,36.0136791 C50.5883044,36.526876 47.4335261,38.6785928 49.4664677,38.2643255 C51.4994093,37.8500582 54.1831401,37.7696779 53.8732405,35.9827636 C53.7836463,35.4531576 53.7298092,34.9181464 53.7120927,34.3813422 C53.7120927,33.7630327 53.7120927,33.2869345 53.7120927,32.9530473 C53.7120927,32.7180898 53.6749047,32.5573293 53.6005288,32.5016815 C53.9402263,32.4614616 54.2835001,32.4614616 54.6231976,32.5016815 C55.7460801,32.6197773 56.787814,33.1404908 57.5548481,33.9670748 L57.5548481,33.9670748 Z" id="Path" fill="#488BC4"></path>
                    <path d="M53.5819348,32.9654135 C53.5797212,32.9797563 53.5797212,32.9943525 53.5819348,33.0086952 C53.5819348,33.0705261 53.5819348,33.1880049 53.6501127,33.3549485 C53.8298545,34.307145 54.269912,36.7309181 54.3566839,37.578002 C54.4434558,38.6476774 51.5675872,39.2412544 50.3093947,39.4947613 C49.9205787,39.5901258 49.5143941,39.5901258 49.1255781,39.4947613 C48.413208,39.284249 47.8748328,38.6996386 47.7248318,37.9737201 C47.6690498,37.7511287 47.5946739,37.3554106 47.489308,36.9102278 C47.0678445,34.8883559 46.3550754,31.1970485 46.3550754,31.1970485 C46.3550754,31.1970485 46.677371,31.1970485 47.1670124,31.1970485 C47.8510597,31.2422263 48.5319119,31.3268702 49.206152,31.4505554 C49.6586055,31.5309356 50.1606429,31.6422313 50.7122642,31.7782594 C53.3835991,32.4398505 53.5819348,32.9654135 53.5819348,32.9654135 Z" id="Path" fill="url(#linearGradient-3)"></path>
                    <path d="M54.8587213,24.0061096 C55.2231389,24.6109773 55.5045591,25.2618868 55.6954503,25.9414182 C55.8751921,26.8256007 56.9350489,31.5062032 56.0921219,32.340921 C55.7760242,32.6500757 54.7595534,32.8850333 53.5695388,33.0086952 C52.4621748,33.1280593 51.3466165,33.1528818 50.2350188,33.0828923 L50.2350188,33.0828923 C49.6968583,33.0714272 49.1645455,32.9689838 48.6607287,32.7799207 C48.4747889,32.6871743 48.2950471,32.5882448 48.1153053,32.4769491 C47.4906989,32.0982198 46.9034056,31.6613964 46.3612734,31.1723161 L46.3612734,31.1723161 C46.18338,31.2209531 46.0002418,31.2479426 45.81585,31.2526964 C45.2624432,31.2746958 44.7207959,31.0894346 44.2973418,30.7333164 C42.0756928,28.4587588 40.9247498,25.3512675 41.1301676,22.1820968 C41.5020471,17.8539306 48.0905133,16.2896077 50.7680462,17.4705788 C53.445579,18.6515498 54.0219923,20.562126 54.0219923,20.562126 C54.6665835,21.6998154 54.6355936,23.4990959 54.8587213,24.0061096 Z" id="Path" fill="url(#linearGradient-4)"></path>
                    <path d="M49.218548,31.425823 C49.4974577,32.3161886 49.8383473,33.0334276 50.2412168,33.05816 C50.073871,33.05816 48.7165106,33.0272445 48.1215033,32.4398505 L48.7846885,35.6921582 L49.4788637,39.0928602 L49.1379741,39.4329304 C48.4256039,39.222418 47.8872288,38.6378076 47.7372277,37.9118891 C47.6814458,37.6892977 47.6070699,37.2935797 47.501704,36.8483969 C47.0802405,34.826525 46.3674714,31.1352176 46.3674714,31.1352176 C46.1873888,31.1834753 46.0022453,31.2104537 45.81585,31.2155978 L48.4252049,27.8829099 C48.6091646,29.0803954 48.8742189,30.2640756 49.218548,31.425823 L49.218548,31.425823 Z" id="Path" fill="url(#linearGradient-5)" opacity="0.31"></path>
                    <path d="M57.5548481,33.9670748 C60.8645762,37.3244951 62.5132423,42.5739423 62.7859539,46.0241091 C63.0276756,48.831234 64.378838,65.0309415 64.2114922,65.0865893 L62.6495981,65.5688707 C62.6495981,65.5688707 62.4512623,63.7634071 62.2157386,61.4200143 C61.6579193,56.1025531 60.8025963,47.2854603 60.9141601,45.0038985 C61.062912,41.6712106 55.5405005,33.781582 55.5405005,33.781582 L53.9042304,35.9827636 L53.7430826,34.3813422 L53.6191228,33.0086952 L53.7182907,32.9530473 L54.6293956,32.5016815 C55.7500753,32.6212223 56.7893747,33.1418195 57.5548481,33.9670748 L57.5548481,33.9670748 Z" id="Path" fill="#FFFFFF" opacity="0.37"></path>
                    <path d="M47.2165964,35.4757499 C47.2165964,35.4757499 45.797256,36.6505378 45.9274139,37.5409034 C46.0575717,38.4312691 47.6566538,39.3092685 47.6566538,39.3092685 C47.6566538,39.3092685 49.8135553,40.6448169 52.8195817,38.8517195 C51.9976588,38.0528009 50.8616867,37.6606994 49.7205854,37.7820441 C47.7248318,37.9489877 47.526496,37.2935797 47.489308,36.8854954 C47.4243505,36.4109529 47.3333094,35.9403286 47.2165964,35.4757499 Z" id="Path" fill="url(#linearGradient-6)"></path>
                    <path d="M52.7080179,18.6886484 C52.2523196,19.4386405 51.6789493,20.1108356 51.0097679,20.6796048 C50.64627,20.9395029 50.2165718,21.0916791 49.7701693,21.1186045 C49.3073773,21.1367306 48.8623749,21.3013105 48.4995808,21.5885197 C47.9913454,22.0955335 48.2330672,23.04773 47.7434257,23.5671099 C47.3777442,23.9566449 46.7517469,23.962828 46.3178874,24.2657996 C45.8323343,24.6785149 45.6253981,25.3314376 45.7848601,25.9476013 C45.9577325,26.549034 46.2300565,27.1174501 46.5905991,27.629403 C46.720757,27.8396282 46.8323208,28.1364168 46.646381,28.2971772 C46.4744808,28.4030191 46.2503049,28.3630839 46.1257497,28.2044308 C46.0096102,28.0470444 45.9118747,27.8769369 45.834444,27.697417 C45.5383496,27.0725034 44.7905044,26.8053657 44.164085,27.1007484 C43.5376656,27.3961311 43.2698843,28.1421787 43.5659787,28.7670924 C43.7705124,29.3235709 44.3283318,29.6512749 44.8055772,30.0037113 C45.2828227,30.3561477 45.6423062,31.0177388 45.3757925,31.5433018 C44.8729755,32.232539 43.9543453,32.4751973 43.1755052,32.1245127 C42.9748734,31.9851102 42.7466177,31.8902323 42.5061219,31.8462734 C42.2622568,31.8641586 42.0272745,31.9451392 41.8243428,32.081231 C41.0361589,32.480905 40.1319043,32.5903808 39.2707698,32.3903858 C39.0726039,32.3656249 38.8944598,32.2576456 38.7811284,32.0935972 C38.7380318,31.9534183 38.7171204,31.8073904 38.7191484,31.6607806 C38.6633665,31.1352176 38.204715,30.7580488 37.8762214,30.3437815 C37.2345786,29.5195725 37.0356822,28.4351937 37.3431941,27.4377271 C37.5009199,27.0855936 37.597336,26.7092199 37.6283017,26.3247701 C37.5911138,25.6569959 36.9589185,25.143799 36.8969386,24.4698417 C36.8535526,23.9380956 37.2006402,23.437265 37.2068382,22.9055188 C37.1669478,22.514618 37.0709297,22.1314688 36.9217306,21.7678294 C36.61104,20.6077597 36.9715814,19.3715266 37.8576274,18.5588034 C38.1613291,18.2805642 38.5456046,18.0394235 38.6881585,17.6560716 C38.7583613,17.4193473 38.791805,17.1732928 38.7873263,16.9264665 C38.7975768,16.7446513 38.8266556,16.5643819 38.8740982,16.3885373 C39.2679522,14.7818746 40.6651664,13.6186569 42.3201822,13.5195814 C42.9399814,13.5195814 43.5225927,13.6370602 44.123798,13.6432433 C45.0906849,13.6432433 46.0389778,13.3526379 46.9996666,13.2784407 C47.9735487,13.1236291 48.9588924,13.4785275 49.6090215,14.2182711 C49.785887,14.5591521 49.9824892,14.8894756 50.1978308,15.2075662 C51.0841438,16.3638049 53.8360525,16.6482272 52.7080179,18.6886484 Z" id="Path" fill="#161F4E"></path>
                    <path d="M52.7080179,18.6886484 C52.2523196,19.4386405 51.6789493,20.1108356 51.0097679,20.6796048 C50.64627,20.9395029 50.2165718,21.0916791 49.7701693,21.1186045 C49.9375151,20.753802 50.3899686,20.4260979 50.5635124,20.0427461 C50.8159691,19.568884 50.7898433,18.995497 50.4953345,18.5464372 C50.0118911,17.9281278 49.0388062,17.9837756 48.357027,17.5818745 C47.9412153,17.3267319 47.6513124,16.9097371 47.557486,16.4318189 C47.5492769,16.2337698 47.4985504,16.0397857 47.4087341,15.8629742 C47.1816215,15.6022949 46.8178249,15.50666 46.4914312,15.6218335 C46.1750172,15.7466201 45.8469871,15.8398218 45.5121484,15.9000728 C44.5948455,15.9742699 43.8200964,14.9664255 42.9151895,15.1210029 C42.1590344,15.2508479 41.607413,16.1597628 40.8512579,16.0237347 C40.6715161,15.9866361 40.4669824,15.8938897 40.3058345,15.9866361 C40.2156295,16.0492735 40.1464976,16.1376359 40.1074988,16.240143 L39.6550453,17.1490579 C39.2787631,17.1057406 38.9644129,16.8431963 38.8555043,16.4812837 C38.8555043,16.4812837 38.8555043,16.4812837 38.8555043,16.438002 C39.2493582,14.8313394 40.6465724,13.6681216 42.3015882,13.5690462 C42.9213875,13.5690462 43.5039988,13.686525 44.1052041,13.6927081 C45.0720909,13.6927081 46.0203838,13.4021026 46.9810726,13.3279055 C47.9549548,13.1730939 48.9402984,13.5279923 49.5904276,14.2677359 C49.767293,14.6086168 49.9638952,14.9389403 50.1792369,15.257031 C51.0841438,16.3638049 53.8360525,16.6482272 52.7080179,18.6886484 Z" id="Path" fill="#FFFFFF" opacity="0.37"></path>
                    <path d="M53.464173,89.7571363 C57.5176602,93.535007 32.1678702,104.268859 28.3065208,103.656733 C24.4451713,103.044606 0.378365831,101.542114 0.124248132,97.9559195 C-0.129869567,94.3697247 44.0494221,80.9647759 53.464173,89.7571363 Z" id="Path" fill="url(#linearGradient-7)"></path>
                    <path d="M18.1356148,90.1652205 C18.1356148,90.1652205 24.5319432,94.122401 34.1574258,93.0589087 C40.9194358,92.3169374 46.2063236,87.2900816 46.2373135,87.2715323 C38.9608701,86.0039979 27.8044834,87.6919827 18.1356148,90.1652205 Z" id="Path" fill="#FFFFFF" opacity="0.34"></path>
                    <path d="M64.447016,109.023659 C63.6350789,103.798944 42.2953902,120.425285 40.7087041,123.968198 C39.122018,127.511111 27.4016138,148.465618 30.0977406,150.400927 C32.7938674,152.336235 66.3374037,121.161073 64.447016,109.023659 Z" id="Path" fill="url(#linearGradient-8)"></path>
                    <path d="M36.1159915,114.279289 C36.2850521,113.168452 35.5381914,112.124813 34.4301375,111.92353 C31.7154167,111.410333 26.0938374,110.779657 20.472258,113.858839 C14.8506787,116.93802 10.7476076,123.275691 9.93567051,126.682576 C9.59478092,128.06759 10.1092143,129.70611 11.4231888,130.058546 C14.8940646,130.98601 21.5445108,130.763419 26.9181704,127.659505 C34.1140399,123.430269 35.6387461,117.309005 36.1159915,114.279289 Z" id="Path" fill="#FCEDCF"></path>
                    <path d="M31.9881284,117.111146 C32.0746939,116.528099 31.6828528,115.981386 31.1018154,115.874527 C28.6137004,115.35749 26.0228828,115.715793 23.7695901,116.888555 C20.8317416,118.496159 18.6562462,121.83503 18.1913967,123.634311 C18.0116549,124.363916 18.2843666,125.223366 18.9723438,125.408859 C21.7440229,125.977343 24.6281106,125.538752 27.1041102,124.17224 C29.7663812,122.728727 31.5801685,120.106435 31.9881284,117.111146 L31.9881284,117.111146 Z" id="Path" fill="#F5BE50"></path>
                    <path d="M123.786598,69.9836001 C123.786598,69.9836001 103.221658,90.9628397 81.9687412,103.539254 C60.7158244,116.115668 43.7767104,122.935621 43.7767104,122.935621 C40.2004687,125.074972 34.4797214,122.09472 31.0398355,116.276428 C27.5999496,110.458137 27.6867215,104.021535 31.2691613,101.882185 C31.2691613,101.882185 67.8373179,67.3063202 115.871761,56.6590316 L123.786598,69.9836001 Z" id="Path" fill="url(#linearGradient-9)"></path>
                    <ellipse id="Oval" fill="url(#linearGradient-10)" cx="82.8054702" cy="83.3514504" rx="3.74358757" ry="3.73458906"></ellipse>
                    <path d="M123.786598,69.9836001 C121.64829,71.2573176 118.140226,69.3096428 115.952335,65.6245185 C113.764444,61.9393942 113.727256,57.9265659 115.871761,56.6528485 C116.593955,56.2709298 117.348996,55.9543264 118.12783,55.706835 L118.165018,55.706835 C122.119338,54.525864 129.538335,53.0110058 132.519569,54.0312164 C132.631133,54.0806812 132.730301,54.1301459 132.829469,54.1857938 C133.203035,54.3803518 133.516007,54.6733248 133.734376,55.0328777 C135.922267,58.6994527 125.931103,68.7036996 123.786598,69.9836001 Z" id="Path" fill="url(#linearGradient-11)"></path>
                    <path d="M132.550559,54.0188502 C129.569325,52.9986396 122.150328,54.5134978 118.196008,55.6944688 C122.069754,54.3465542 129.370989,52.6338371 132.550559,54.0188502 Z" id="Path" fill="url(#linearGradient-12)"></path>
                    <path d="M132.848063,54.1486952 L132.848063,54.1486952 C132.748895,54.0930473 132.649727,54.0435826 132.538163,53.9941178 C132.644805,54.0386873 132.748336,54.0903286 132.848063,54.1486952 Z" id="Path" fill="#FFFFFF" opacity="0.34"></path>
                    <ellipse id="Oval" fill="url(#linearGradient-13)" cx="66.0584941" cy="91.8284729" rx="3.74358757" ry="3.73458906"></ellipse>
                    <path d="M49.0697962,68.9324741 L56.3462396,67.3619681 C57.1440199,69.2629564 58.7254725,70.7279183 60.6848344,71.3809795 C60.6848344,71.3809795 60.6848344,71.3809795 60.6848344,71.3809795 L60.7406164,71.3809795 C61.9780086,71.7063196 63.1784968,72.1580105 64.3230561,72.7288941 C66.8022532,74.163372 68.5252951,77.1930883 69.6595278,77.9968906 C70.7937604,78.8006929 84.9375797,81.5088882 87.3857868,84.6004355 C89.6170642,87.4384758 98.3748278,108.096194 98.3748278,108.096194 C98.3748278,108.096194 98.226076,109.141137 97.9719583,110.451953 C97.8108105,111.255756 97.6062767,112.158488 97.352159,112.974656 C96.7323597,115.089274 92.263607,113.209614 92.263607,113.209614 C92.263607,113.209614 83.2083397,92.3416698 80.8283106,91.7728251 C78.4482814,91.2039804 73.0002458,91.2287127 67.775338,90.0724741 C62.5504302,88.9162354 53.3278171,83.6358727 53.3278171,83.6358727 L53.3278171,83.6358727 C50.0361286,81.0278398 47.8283518,77.2968558 47.1298245,73.1617107 C46.7827369,71.0965571 46.5100252,69.3096428 46.5100252,69.2230795 C46.6339851,69.0252205 49.0697962,68.9324741 49.0697962,68.9324741 Z" id="Path" fill="#212C6E"></path>
                    <ellipse id="Oval" fill="url(#linearGradient-14)" cx="98.18269" cy="75.5174697" rx="3.74358757" ry="3.73458906"></ellipse>
                    <path d="M51.1027378,43.9651386 C49.874156,43.9958734 48.7336121,44.6082011 48.0311468,45.6141941 C47.3286816,46.6201872 47.1481988,47.8996879 47.54509,49.0600084 C48.7846885,52.825513 51.2638856,59.1137201 54.8525233,61.5560424 C58.6828828,64.1653082 70.2545351,63.7695902 78.0454119,65.0989555 C78.9786566,65.3746278 79.8770593,65.756361 80.7229447,66.2366449 C82.7620843,68.0915732 83.5616253,68.4440096 84.6090861,68.7098827 C89.1336207,69.7981073 92.8400203,66.9477008 92.8400203,66.9477008 C92.8400203,66.9477008 93.7759172,66.8054896 92.7594464,66.2861096 C91.7429756,65.7667297 87.4291727,63.6459283 87.4291727,63.6459283 L88.4022576,61.7229859 C88.4022576,61.7229859 88.7059592,60.6038458 88.098556,60.3998037 C87.4911527,60.1957616 86.4188999,61.791 85.4458151,61.6364226 C84.4727302,61.4818452 83.0905779,62.5082389 83.0905779,62.5082389 L60.4059247,57.99458 C60.4059247,57.99458 54.4558518,51.1066127 53.8360525,46.5867707 C53.5819348,44.645279 52.4229102,43.9713217 51.1027378,43.9651386 Z" id="Path" fill="url(#linearGradient-15)"></path>
                    <path d="M76.5702896,61.6240564 L76.5021117,61.9826759 L76.210806,63.68921 C75.8796182,65.1693204 74.5100002,66.1828761 72.9940478,66.0697013 C67.750546,65.6678002 56.3710315,64.5610263 54.4000699,62.4402249 C51.8279029,59.6701986 46.652579,51.3663027 46.8695088,47.1370661 C46.9679839,44.5904271 49.0148121,42.5485188 51.5675872,42.4502723 C52.9605822,42.4475792 54.2701611,43.1122949 55.088047,44.2371948 L55.2925808,44.7874902 C56.1664978,47.1494323 59.6311757,56.3498768 60.5856665,57.2216932 C61.5401574,58.0935095 71.0726701,59.2002834 75.1075633,59.6949309 C75.7935769,59.7729073 76.3604355,60.264643 76.5331016,60.9315498 C76.5966579,61.1568052 76.6093587,61.3933165 76.5702896,61.6240564 Z" id="Path" fill="url(#linearGradient-16)"></path>
                    <path d="M78.5598452,61.7786338 L78.5598452,61.7786338 L76.5021117,61.9517604 L75.9380944,62.0012252 L74.4629721,61.2654369 C74.4629721,61.2654369 60.0278472,59.6269169 58.527933,58.5634247 C57.0280187,57.4999324 51.710141,42.876914 51.5675872,42.4193568 C52.9605822,42.4166637 54.2701611,43.0813794 55.088047,44.2062793 L55.2925808,44.7565747 C56.1664978,47.1185168 59.6311757,56.3189614 60.5856665,57.1907777 C61.5401574,58.062594 71.0726701,59.1693679 75.1075633,59.6640155 C75.7935769,59.7419919 76.3604355,60.2337276 76.5331016,60.9006344 L77.8780661,60.9933808 C78.2833746,61.023051 78.5882559,61.3742043 78.5598452,61.7786338 Z" id="Path" fill="#FFFFFF" opacity="0.37"></path>
                    <path d="M93.7263333,112.10284 C93.7263333,112.10284 93.937065,114.050514 94.7118141,114.953246 C95.4930058,115.985406 96.2211739,117.056459 96.8935075,118.162272 C97.3130839,118.400366 97.8330485,118.373827 98.226076,118.094258 L98.9822311,117.568695 C99.5825542,117.950439 100.263715,118.187532 100.971787,118.261202 C102.044039,118.335399 110.659249,118.539441 109.314285,114.279289 C107.96932,110.019137 103.116292,111.762769 101.752734,111.670023 C100.389175,111.577277 97.5009108,109.679067 97.5009108,109.679067 L93.7263333,112.10284 Z" id="Path" fill="#161F4E"></path>
                    <polygon id="Path" fill="#FFFFFF" opacity="0.37" points="57.5362541 34.8388912 83.7909511 9.57476715 82.8054702 8.24540184 55.5157085 33.781582"></polygon>
                    <path d="M82.8054702,8.24540184 C82.8054702,8.24540184 85.507795,3.83067239 86.0346244,2.68061681 C86.5614538,1.53056124 88.2163178,0.856603945 89.8711819,1.20285724 C91.5260459,1.54911053 92.2264191,4.67157323 92.2264191,4.67157323 C92.2264191,4.67157323 91.3587001,7.38595171 90.3112393,7.64564168 C89.2637786,7.90533164 86.9953133,9.82209093 86.9953133,9.82209093 L85.2846673,11.5780898 L82.8054702,8.24540184 Z" id="Path" fill="url(#linearGradient-17)"></path>
                    <polygon id="Path" fill="url(#linearGradient-18)" opacity="0.55" points="162.276132 67.2692217 37.5353318 139.110596 34.0830499 134.689684 158.82385 62.842126"></polygon>
                </g>
            </g>
        </g>
    </g>
</svg> 