<svg xmlns="http://www.w3.org/2000/svg" x="0px" y="0px"
        width="100" height="100"
        viewBox="0 0 171 171"
        style=" fill:#000000;"><defs><radialGradient cx="82.30825" cy="63.93664" r="83.25635" gradientUnits="userSpaceOnUse" id="color-1_LXT76ulDaezz_gr1"><stop offset="0" stop-color="#f9e5c8"></stop><stop offset="0.629" stop-color="#f8daba"></stop><stop offset="0.713" stop-color="#f5d5b5"></stop><stop offset="0.818" stop-color="#eec7a5"></stop><stop offset="0.933" stop-color="#e1b08c"></stop><stop offset="0.999" stop-color="#d8a07a"></stop></radialGradient><radialGradient cx="76.8981" cy="96.34241" r="15.62795" gradientUnits="userSpaceOnUse" id="color-2_LXT76ulDaezz_gr2"><stop offset="0.229" stop-color="#f8daba" stop-opacity="0"></stop><stop offset="0.999" stop-color="#e4b794"></stop></radialGradient><radialGradient cx="76.8981" cy="114.85623" r="15.62795" gradientUnits="userSpaceOnUse" id="color-3_LXT76ulDaezz_gr3"><stop offset="0.224" stop-color="#f8daba" stop-opacity="0"></stop><stop offset="0.999" stop-color="#e4b794"></stop></radialGradient><radialGradient cx="76.66637" cy="133.14603" r="15.62795" gradientUnits="userSpaceOnUse" id="color-4_LXT76ulDaezz_gr4"><stop offset="0.224" stop-color="#f8daba" stop-opacity="0"></stop><stop offset="0.999" stop-color="#d8a07a"></stop></radialGradient></defs><g fill="none" fill-rule="nonzero" stroke="none" stroke-width="1" stroke-linecap="butt" stroke-linejoin="miter" stroke-miterlimit="10" stroke-dasharray="" stroke-dashoffset="0" font-family="none" font-weight="none" font-size="none" text-anchor="none" style="mix-blend-mode: normal"><path d="M0,171.99075v-171.99075h171.99075v171.99075z" fill="none"></path><path d="M85.99538,171.49538c-47.22035,0 -85.5,-38.27965 -85.5,-85.5v0c0,-47.22035 38.27965,-85.5 85.5,-85.5v0c47.22035,0 85.5,38.27965 85.5,85.5v0c0,47.22035 -38.27965,85.5 -85.5,85.5z" fill="#4cee26"></path><g><path d="M152.63092,76.44703h-9.66473c-5.6666,0 -11.02731,-2.40382 -14.91112,-6.52864c-1.78587,-1.89711 -3.82202,-3.64899 -6.08062,-5.19387c-0.4511,-0.30897 -0.92692,-0.54689 -1.3873,-0.83423l-8.43192,-5.91069l0.06179,-0.04326l-10.61946,-7.38759l-0.81569,-0.86822c-2.92599,-3.12065 -5.03629,-6.93031 -6.15478,-11.0922l-2.42545,-9.07459c-0.46655,-1.77969 -2.06704,-2.98779 -3.86527,-2.95071c-11.52476,0.85586 -13.82971,21.32853 -4.51721,41.74868h-0.03708c0.49745,1.14321 -0.15449,1.89093 -2.48416,2.08867c-0.01545,0 -0.03399,0.00309 -0.04944,0.00309c-2.49343,0.07415 -55.12729,1.66228 -55.62783,1.67464c-2.90436,-0.08651 -5.49666,0.54071 -7.55134,1.65919c-2.33276,1.26989 -3.63663,3.09284 -3.67062,5.1228c-0.0309,2.03614 1.21118,3.90235 3.49759,5.25257c2.01452,1.18646 4.6717,1.86621 7.43702,1.91255l43.4295,2.21535c0,0.02781 0,0.05253 0,0.10814c-4.26076,0.83423 -7.48028,4.56974 -7.48028,9.07459c0,5.11971 4.14953,9.26924 9.26924,9.26924c-5.11971,0 -9.26924,4.14953 -9.26924,9.26924c0,4.49558 3.20407,8.22182 7.44938,9.06841c-4.35346,0.76008 -7.67184,4.53575 -7.67184,9.10858c0,5.11971 4.44306,10.156 9.56277,10.156c0.00927,0 43.32445,0.9949 51.61424,-2.30804c2.90127,-1.15557 5.46885,-3.17626 7.5946,-5.67587c3.91471,-4.60064 9.5844,-7.34124 15.62486,-7.34124h7.17131c2.15355,0 3.89617,-11.75958 3.89617,-26.26286c0.00309,-14.50019 -1.74262,-26.25977 -3.89308,-26.25977z" fill="url(#color-1_LXT76ulDaezz_gr1)"></path><g opacity="0.58"><path d="M69.18609,88.7535l9.23217,3.94252c2.40073,-0.04326 4.31329,-2.02687 4.26694,-4.42761c-0.04326,-2.40073 -2.02687,-4.31329 -4.42761,-4.26694c-0.34296,0.00618 -0.69519,0.05871 -1.01344,0.13904l-8.18165,3.72315c-0.241,0.06179 -0.38622,0.30897 -0.32442,0.54998c0.05562,0.20701 0.24409,0.34296 0.44801,0.33987z" fill="#f6d7b7" opacity="0.091"></path><path d="M69.15519,88.7226l9.47008,3.62736c2.22462,-0.04635 3.99195,-1.88784 3.94252,-4.11245c-0.04635,-2.22462 -1.88784,-3.99195 -4.11245,-3.94252c-0.30897,0.00618 -0.63031,0.05253 -0.91766,0.12668l-8.49681,3.47906c-0.22555,0.05871 -0.35841,0.28735 -0.3028,0.50981c0.05253,0.18847 0.22864,0.31515 0.41712,0.31206z" fill="#f4d4b3" opacity="0.182"></path><path d="M69.12738,88.6917l9.71108,3.31221c2.0485,-0.04944 3.66753,-1.7488 3.62118,-3.7973c-0.04944,-2.0485 -1.7488,-3.66135 -3.7973,-3.62118c-0.27808,0.00618 -0.56542,0.04635 -0.82187,0.11123l-8.81196,3.23497c-0.20701,0.05253 -0.3306,0.26263 -0.27808,0.46964c0.03708,0.17612 0.20083,0.29353 0.37695,0.29044z" fill="#f3d0b0" opacity="0.273"></path><path d="M69.09648,88.65772l9.94899,2.99397c1.87239,-0.05253 3.3462,-1.60976 3.29676,-3.48215c-0.05253,-1.87239 -1.60976,-3.34002 -3.48215,-3.29676c-0.24409,0.00618 -0.50054,0.04326 -0.72918,0.09887l-9.12712,2.98779c-0.18847,0.04635 -0.3028,0.23791 -0.25645,0.42639c0.03708,0.16994 0.18847,0.27808 0.34914,0.2719z" fill="#f1cdac" opacity="0.364"></path><path d="M69.06559,88.62682l10.1869,2.67881c1.69627,-0.05562 3.02486,-1.47381 2.97234,-3.16699c-0.05562,-1.69627 -1.47072,-3.01559 -3.16699,-2.97234c-0.21319,0.00618 -0.43565,0.03708 -0.6334,0.08651l-9.44227,2.7437c-0.16994,0.04326 -0.27499,0.21628 -0.23482,0.38622c0.03708,0.1514 0.17303,0.25027 0.31824,0.24409z" fill="#efcaa9" opacity="0.455"></path><path d="M69.03778,88.59592l10.42481,2.36366c1.52016,-0.05562 2.70353,-1.33477 2.64791,-2.85184c-0.05562,-1.52016 -1.33477,-2.69117 -2.85184,-2.64791c-0.1823,0.00618 -0.37077,0.0309 -0.53762,0.07415l-9.75742,2.49961c-0.15449,0.03708 -0.24718,0.19156 -0.21319,0.34605c0.0309,0.12977 0.15449,0.21937 0.28735,0.21628z" fill="#edc7a5" opacity="0.545"></path><path d="M69.00688,88.56194l10.66272,2.0485c1.34095,-0.05871 2.3822,-1.19573 2.32349,-2.53668c-0.05871,-1.34095 -1.19573,-2.36984 -2.53668,-2.32349c-0.14831,0.00618 -0.3028,0.02781 -0.44183,0.06179l-10.07258,2.25243c-0.13595,0.0309 -0.21937,0.16685 -0.18847,0.3028c0.02472,0.1205 0.13595,0.20083 0.25336,0.19465z" fill="#ebc4a2" opacity="0.636"></path><path d="M68.97907,88.53104l10.90063,1.73335c1.16484,-0.06179 2.06086,-1.05669 1.99907,-2.22153c-0.06179,-1.16484 -1.05669,-2.04541 -2.22153,-1.99907c-0.11741,0.00618 -0.23791,0.02163 -0.34914,0.04635l-10.38773,2.00834c-0.11741,0.02781 -0.19465,0.14522 -0.16685,0.26263c0.02163,0.10505 0.1205,0.17612 0.22555,0.16994z" fill="#e9c19e" opacity="0.727"></path><path d="M68.94818,88.50014l11.13854,1.4151c0.98872,-0.06488 1.73953,-0.91766 1.67464,-1.90637c-0.06488,-0.98872 -0.91766,-1.72408 -1.90637,-1.67464c-0.08342,0.00309 -0.17303,0.01545 -0.25336,0.03399l-10.70289,1.76116c-0.10196,0.02163 -0.16685,0.1205 -0.14522,0.22246c0.01854,0.09269 0.10196,0.15449 0.19465,0.14831z" fill="#e8bd9b" opacity="0.818"></path><path d="M68.91728,88.46924l11.37645,1.09995c0.8126,-0.06797 1.41819,-0.77862 1.35022,-1.59431c-0.06797,-0.8126 -0.77862,-1.40275 -1.59122,-1.35022c-0.05253,0.00309 -0.10814,0.00927 -0.15758,0.02163l-11.01804,1.51707c-0.08342,0.01545 -0.13904,0.09578 -0.1205,0.17921c0.01236,0.08033 0.08342,0.13286 0.16067,0.12668z" fill="#e6ba97" opacity="0.909"></path><path d="M68.88947,88.43526l11.61436,0.7848c0.63649,-0.06797 1.09686,-0.64267 1.0258,-1.27916c-0.06797,-0.63649 -0.64267,-1.09686 -1.27916,-1.0258c-0.02163,0.00309 -0.04326,0.00618 -0.06488,0.00927l-11.3332,1.27298c-0.06488,0.01236 -0.11123,0.07415 -0.09887,0.13904c0.01545,0.06179 0.07106,0.10814 0.13595,0.09887z" fill="#e4b794"></path></g><g opacity="0.58"><path d="M69.18609,107.04481l9.23217,3.94252c2.40073,-0.04326 4.31329,-2.02687 4.26694,-4.42761c-0.04326,-2.40073 -2.02687,-4.31329 -4.42761,-4.26694c-0.34296,0.00618 -0.69519,0.05871 -1.01344,0.13904l-8.18165,3.72315c-0.241,0.06179 -0.38622,0.30897 -0.32442,0.54998c0.05562,0.2101 0.24409,0.34605 0.44801,0.33987z" fill="#f6d7b7" opacity="0.091"></path><path d="M69.15519,107.01391l9.47008,3.62736c2.22462,-0.04635 3.99195,-1.88784 3.94252,-4.11245c-0.04635,-2.22462 -1.88784,-3.99195 -4.11245,-3.94252c-0.30897,0.00618 -0.63031,0.05253 -0.91766,0.12668l-8.49681,3.47906c-0.22555,0.05871 -0.35841,0.28735 -0.3028,0.50981c0.05253,0.18847 0.22864,0.31515 0.41712,0.31206z" fill="#f4d4b3" opacity="0.182"></path><path d="M69.12738,106.98301l9.71108,3.31221c2.0485,-0.04944 3.66753,-1.7488 3.62118,-3.7973c-0.04944,-2.0485 -1.7488,-3.66135 -3.7973,-3.62118c-0.27808,0.00618 -0.56542,0.04635 -0.82187,0.11123l-8.81196,3.23497c-0.20701,0.05253 -0.3306,0.26263 -0.27808,0.46964c0.03708,0.17612 0.20083,0.29353 0.37695,0.29044z" fill="#f3d0b0" opacity="0.273"></path><path d="M69.09648,106.94903l9.94899,2.99397c1.87239,-0.05253 3.3462,-1.60976 3.29676,-3.48215c-0.05253,-1.87239 -1.60976,-3.34002 -3.48215,-3.29676c-0.24409,0.00618 -0.50054,0.04326 -0.72918,0.09887l-9.12712,2.98779c-0.18847,0.04635 -0.3028,0.23791 -0.25645,0.42639c0.03708,0.16994 0.18847,0.27808 0.34914,0.2719z" fill="#f1cdac" opacity="0.364"></path><path d="M69.06559,106.91813l10.1869,2.67881c1.69627,-0.05562 3.02486,-1.47381 2.97234,-3.16699c-0.05562,-1.69627 -1.47072,-3.01559 -3.16699,-2.97234c-0.21319,0.00618 -0.43565,0.03708 -0.6334,0.08651l-9.44227,2.7437c-0.16994,0.04326 -0.27499,0.21628 -0.23482,0.38622c0.03708,0.1514 0.17303,0.25027 0.31824,0.24409z" fill="#efcaa9" opacity="0.455"></path><path d="M69.03778,106.88723l10.42481,2.36366c1.52016,-0.05562 2.70353,-1.33477 2.64791,-2.85184c-0.05562,-1.52016 -1.33477,-2.69117 -2.85184,-2.64791c-0.1823,0.00618 -0.37077,0.0309 -0.53762,0.07415l-9.75742,2.49961c-0.15449,0.03708 -0.24718,0.19156 -0.21319,0.34605c0.0309,0.13286 0.15449,0.22246 0.28735,0.21628z" fill="#edc7a5" opacity="0.545"></path><path d="M69.00688,106.85633l10.66272,2.0485c1.34095,-0.05871 2.3822,-1.19573 2.32349,-2.53668c-0.05871,-1.34095 -1.19573,-2.36984 -2.53668,-2.32349c-0.14831,0.00618 -0.3028,0.02781 -0.44183,0.06179l-10.07258,2.25243c-0.13595,0.0309 -0.21937,0.16685 -0.18847,0.3028c0.02472,0.11741 0.13595,0.19774 0.25336,0.19465z" fill="#ebc4a2" opacity="0.636"></path><path d="M68.97907,106.82235l10.90063,1.73335c1.16484,-0.06179 2.06086,-1.05669 1.99907,-2.22153c-0.06179,-1.16484 -1.05669,-2.04541 -2.22153,-1.99907c-0.11741,0.00618 -0.23791,0.02163 -0.34914,0.04635l-10.38773,2.00834c-0.11741,0.02781 -0.19465,0.14522 -0.16685,0.26263c0.02163,0.10505 0.1205,0.17612 0.22555,0.16994z" fill="#e9c19e" opacity="0.727"></path><path d="M68.94818,106.79145l11.13854,1.4151c0.98872,-0.06488 1.73953,-0.91766 1.67464,-1.90637c-0.06488,-0.98872 -0.91766,-1.72408 -1.90637,-1.67464c-0.08342,0.00309 -0.17303,0.01545 -0.25336,0.03399l-10.70289,1.76116c-0.10196,0.02163 -0.16685,0.1205 -0.14522,0.22246c0.01854,0.09269 0.10196,0.15449 0.19465,0.14831z" fill="#e8bd9b" opacity="0.818"></path><path d="M68.91728,106.76055l11.37645,1.09995c0.8126,-0.06797 1.41819,-0.77862 1.35022,-1.59431c-0.06797,-0.8126 -0.77862,-1.40275 -1.59122,-1.35022c-0.05253,0.00309 -0.10814,0.00927 -0.15758,0.02163l-11.01804,1.51707c-0.08342,0.01545 -0.13904,0.09578 -0.1205,0.17921c0.01236,0.08033 0.08342,0.13286 0.16067,0.12668z" fill="#e6ba97" opacity="0.909"></path><path d="M68.88947,106.72965l11.61436,0.7848c0.63649,-0.06797 1.09686,-0.64267 1.0258,-1.27916c-0.06797,-0.63649 -0.64267,-1.09686 -1.27916,-1.0258c-0.02163,0.00309 -0.04326,0.00618 -0.06488,0.00927l-11.3332,1.27298c-0.06488,0.01236 -0.11123,0.07415 -0.09887,0.13904c0.01545,0.06179 0.07106,0.10505 0.13595,0.09887z" fill="#e4b794"></path></g><g opacity="0.58"><path d="M69.18609,125.33921l9.23217,3.94252c2.40073,-0.04326 4.31329,-2.02687 4.26694,-4.42761c-0.04326,-2.40073 -2.02687,-4.31329 -4.42761,-4.26694c-0.34296,0.00618 -0.69519,0.05871 -1.01344,0.13904l-8.18165,3.72315c-0.241,0.06179 -0.38622,0.30897 -0.32442,0.54998c0.05562,0.20701 0.24409,0.34296 0.44801,0.33987z" fill="#f6d7b7" opacity="0.091"></path><path d="M69.15519,125.30522l9.47008,3.62736c2.22462,-0.04635 3.99195,-1.88784 3.94252,-4.11245c-0.04635,-2.22462 -1.88784,-3.99195 -4.11245,-3.94252c-0.30897,0.00618 -0.63031,0.05253 -0.91766,0.12668l-8.49681,3.47906c-0.22555,0.05871 -0.35841,0.28735 -0.3028,0.50981c0.05253,0.19156 0.22864,0.31824 0.41712,0.31206z" fill="#f4d4b3" opacity="0.182"></path><path d="M69.12738,125.27432l9.71108,3.31221c2.0485,-0.04944 3.66753,-1.7488 3.62118,-3.7973c-0.04944,-2.0485 -1.7488,-3.66135 -3.7973,-3.62118c-0.27808,0.00618 -0.56542,0.04635 -0.82187,0.11123l-8.81196,3.23497c-0.20701,0.05253 -0.3306,0.26263 -0.27808,0.46964c0.03708,0.17612 0.20083,0.29353 0.37695,0.29044z" fill="#f3d0b0" opacity="0.273"></path><path d="M69.09648,125.24343l9.94899,2.99706c1.87239,-0.05253 3.3462,-1.60976 3.29676,-3.48215c-0.05253,-1.87239 -1.60976,-3.34002 -3.48215,-3.29676c-0.24409,0.00618 -0.50054,0.04326 -0.72918,0.09887l-9.12712,2.98779c-0.18847,0.04635 -0.3028,0.23791 -0.25645,0.42639c0.03708,0.16376 0.18847,0.2719 0.34914,0.26881z" fill="#f1cdac" opacity="0.364"></path><path d="M69.06559,125.20944l10.1869,2.67881c1.69627,-0.05562 3.02486,-1.47381 2.97234,-3.16699c-0.05562,-1.69627 -1.47072,-3.01559 -3.16699,-2.97234c-0.21319,0.00618 -0.43565,0.03708 -0.6334,0.08651l-9.44227,2.7437c-0.16994,0.04326 -0.27499,0.21628 -0.23482,0.38622c0.03708,0.1514 0.17303,0.25027 0.31824,0.24409z" fill="#efcaa9" opacity="0.455"></path><path d="M69.03778,125.17854l10.42481,2.36366c1.52016,-0.05562 2.70353,-1.33477 2.64791,-2.85184c-0.05562,-1.52016 -1.33477,-2.69117 -2.85184,-2.64791c-0.1823,0.00618 -0.37077,0.0309 -0.53762,0.07415l-9.75742,2.49961c-0.15449,0.03708 -0.24718,0.19156 -0.21319,0.34605c0.0309,0.13286 0.15449,0.22246 0.28735,0.21628z" fill="#edc7a5" opacity="0.545"></path><path d="M69.00688,125.14764l10.66272,2.0485c1.34095,-0.05871 2.3822,-1.19573 2.32349,-2.53668c-0.05871,-1.34095 -1.19573,-2.36984 -2.53668,-2.32349c-0.14831,0.00618 -0.3028,0.02781 -0.44183,0.06179l-10.07258,2.25243c-0.13595,0.0309 -0.21937,0.16685 -0.18847,0.3028c0.02472,0.1205 0.13595,0.20083 0.25336,0.19465z" fill="#ebc4a2" opacity="0.636"></path><path d="M68.97907,125.11675l10.90063,1.73335c1.16484,-0.06179 2.06086,-1.05669 1.99907,-2.22153c-0.06179,-1.16484 -1.05669,-2.04541 -2.22153,-1.99907c-0.11741,0.00618 -0.23791,0.02163 -0.34914,0.04635l-10.38773,2.00834c-0.11741,0.02781 -0.19465,0.14522 -0.16685,0.26263c0.02163,0.10196 0.1205,0.17612 0.22555,0.16994z" fill="#e9c19e" opacity="0.727"></path><path d="M68.94818,125.08276l11.13854,1.4151c0.98872,-0.06488 1.73953,-0.91766 1.67464,-1.90637c-0.06488,-0.98872 -0.91766,-1.72408 -1.90637,-1.67464c-0.08342,0.00309 -0.17303,0.01545 -0.25336,0.03399l-10.70289,1.76116c-0.10196,0.02163 -0.16685,0.1205 -0.14522,0.22246c0.01854,0.09269 0.10196,0.15449 0.19465,0.14831z" fill="#e8bd9b" opacity="0.818"></path><path d="M68.91728,125.05186l11.37645,1.09995c0.8126,-0.06797 1.41819,-0.77862 1.35022,-1.59431c-0.06797,-0.8126 -0.77862,-1.40275 -1.59122,-1.35022c-0.05253,0.00309 -0.10814,0.00927 -0.15758,0.02163l-11.01804,1.51707c-0.08342,0.01545 -0.13904,0.09578 -0.1205,0.17921c0.01236,0.08033 0.08342,0.13286 0.16067,0.12668z" fill="#e6ba97" opacity="0.909"></path><path d="M68.88947,125.02096l11.61436,0.7848c0.63649,-0.06797 1.09686,-0.64267 1.0258,-1.27916c-0.06797,-0.63649 -0.64267,-1.09686 -1.27916,-1.0258c-0.02163,0.00309 -0.04326,0.00618 -0.06488,0.00927l-11.3332,1.27298c-0.06488,0.01236 -0.11123,0.07415 -0.09887,0.13904c0.01545,0.06179 0.07106,0.10505 0.13595,0.09887z" fill="#e4b794"></path></g><path d="M73.79599,97.95168c0.15758,-4.38126 3.33693,-7.92211 7.45865,-8.7409c-5.07337,-0.51908 -10.2456,-1.04742 -10.28886,-1.04742c-5.11662,-0.1823 -9.41137,3.81584 -9.59367,8.93246c-0.1823,5.11662 3.81584,9.41137 8.93246,9.59367c0.14831,0.00618 7.83251,0.27808 7.83251,0.27808l1.94654,0.04635c-3.76949,-1.28225 -6.43595,-4.87562 -6.28764,-9.06223z" fill="url(#color-2_LXT76ulDaezz_gr2)" opacity="0.76"></path><path d="M73.79599,116.46236c0.15758,-4.38126 3.33693,-7.92211 7.45865,-8.7409c-5.07337,-0.51908 -10.2456,-1.04742 -10.28886,-1.04742c-5.11662,-0.1823 -9.41137,3.81584 -9.59367,8.93246c-0.1823,5.11662 3.81584,9.41137 8.93246,9.59367c0.14831,0.00618 7.83251,0.27808 7.83251,0.27808l1.94654,0.04635c-3.76949,-1.28225 -6.43595,-4.87871 -6.28764,-9.06223z" fill="url(#color-3_LXT76ulDaezz_gr3)" opacity="0.76"></path><path d="M73.56426,134.75367c0.15758,-4.38126 3.33693,-7.92211 7.45865,-8.7409c-5.07337,-0.51908 -10.2456,-1.04742 -10.28886,-1.04742c-5.11662,-0.1823 -9.41137,3.81584 -9.59367,8.93246c-0.1823,5.11662 3.81584,9.41137 8.93246,9.59367c0.14831,0.00618 7.83251,0.27808 7.83251,0.27808l1.94654,0.04635c-3.7664,-1.28225 -6.43595,-4.87871 -6.28764,-9.06223z" fill="url(#color-4_LXT76ulDaezz_gr4)" opacity="0.79"></path><g opacity="0.3"><path d="M70.69697,127.30738c0.00927,0 43.32445,0.9949 51.61424,-2.30804c2.90127,-1.15557 5.46885,-3.17626 7.5946,-5.67587c3.91471,-4.60064 9.5844,-7.34124 15.62486,-7.34124h7.17131c1.70863,0 3.15463,-7.47101 3.66753,-17.79386c0.09887,1.8384 0.17303,3.76949 0.20392,5.78401c-0.20083,13.21485 -1.85694,23.52534 -3.87145,23.52534h-7.17131c-6.04355,0 -11.71015,2.73752 -15.62486,7.34124c-2.12575,2.49961 -4.69333,4.5203 -7.5946,5.67587c-8.28979,3.29985 -51.60497,2.30804 -51.61424,2.30804c-4.20206,0 -7.90667,-3.42035 -9.07768,-7.45556c0.89294,-2.5923 2.97543,-4.60064 5.58935,-5.41324c0.9053,0.74463 2.14737,1.35331 3.48833,1.35331z" fill="#f6d7b7" opacity="0.091"></path><path d="M70.69697,128.69776c0.00927,0 43.32445,0.9949 51.61424,-2.30804c2.90127,-1.15557 5.46885,-3.17626 7.5946,-5.67587c3.91471,-4.60064 9.5844,-7.34124 15.62486,-7.34124h7.17131c1.74571,0 3.21643,-7.81706 3.68916,-18.48596c0.0896,1.70554 0.15449,3.49451 0.18538,5.36071c-0.1823,13.34462 -1.84767,23.80033 -3.87454,23.80033h-7.17131c-6.04355,0 -11.71015,2.73752 -15.62486,7.34124c-2.12575,2.49961 -4.69333,4.5203 -7.5946,5.67587c-8.28979,3.29985 -51.60497,2.30804 -51.61424,2.30804c-4.29166,0 -8.07042,-3.58102 -9.12712,-7.72746c0.80333,-2.39147 2.68499,-4.25149 5.04556,-5.03938c0.88676,1.12776 2.41,2.09176 4.08156,2.09176z" fill="#f4d4b3" opacity="0.182"></path><path d="M70.69697,130.08815c0.00927,0 43.32445,0.9949 51.61424,-2.30804c2.90127,-1.15557 5.46885,-3.17626 7.5946,-5.67587c3.91471,-4.60064 9.5844,-7.34124 15.62486,-7.34124h7.17131c1.78278,0 3.27822,-8.16311 3.71079,-19.18116c0.08033,1.57268 0.13904,3.22261 0.16685,4.93742c-0.16067,13.4713 -1.83531,24.07532 -3.87763,24.07532h-7.17131c-6.04355,0 -11.71015,2.73752 -15.62486,7.34124c-2.12575,2.49961 -4.69333,4.5203 -7.5946,5.67587c-8.28979,3.29985 -51.60497,2.30804 -51.61424,2.30804c-4.38435,0 -8.23727,-3.74477 -9.17346,-7.99627c0.71373,-2.18754 2.39147,-3.90544 4.50176,-4.66552c0.86822,1.51398 2.66954,2.83021 4.6717,2.83021z" fill="#f3d0b0" opacity="0.273"></path><path d="M70.69697,131.47854c0.00927,0 43.32445,0.9949 51.61424,-2.30804c2.90127,-1.15557 5.46885,-3.17626 7.5946,-5.67587c3.91471,-4.60064 9.5844,-7.34124 15.62486,-7.34124h7.17131c1.81986,0 3.33693,-8.50917 3.73242,-19.87326c0.07106,1.43982 0.12359,2.94762 0.14831,4.51412c-0.14213,13.60107 -1.82295,24.34722 -3.88072,24.34722h-7.17131c-6.04355,0 -11.71015,2.73752 -15.62486,7.34124c-2.12575,2.49961 -4.69333,4.5203 -7.5946,5.67587c-8.28979,3.29985 -51.60497,2.30804 -51.61424,2.30804c-4.47705,0 -8.40411,-3.90544 -9.2229,-8.26817c0.62413,-1.98671 2.09794,-3.5563 3.95797,-4.28857c0.84968,1.89711 2.93217,3.56866 5.26493,3.56866z" fill="#f1cdac" opacity="0.364"></path><path d="M70.69697,132.86892c0.00927,0 43.32445,0.9949 51.61424,-2.30804c2.90127,-1.15557 5.46885,-3.17626 7.5946,-5.67587c3.91471,-4.60064 9.5844,-7.34124 15.62486,-7.34124h7.17131c1.85694,0 3.39872,-8.85831 3.75404,-20.56536c0.06179,1.31005 0.10814,2.67263 0.12668,4.08774c-0.1205,13.73084 -1.81368,24.6222 -3.88072,24.6222h-7.17131c-6.04355,0 -11.71015,2.73752 -15.62486,7.34124c-2.12575,2.49961 -4.69333,4.5203 -7.5946,5.67587c-8.28979,3.29985 -51.60497,2.30804 -51.61424,2.30804c-4.56974,0 -8.56787,-4.06611 -9.27233,-8.53697c0.53453,-1.78278 1.8075,-3.21025 3.41417,-3.91471c0.83114,2.28332 3.19789,4.30711 5.85816,4.30711z" fill="#efcaa9" opacity="0.455"></path><path d="M70.69697,134.25622c0.00927,0 43.32445,0.9949 51.61424,-2.30804c2.90127,-1.15557 5.46885,-3.17626 7.5946,-5.67587c3.91471,-4.60064 9.5844,-7.34124 15.62486,-7.34124h7.17131c1.89093,0 3.46052,-9.20436 3.77567,-21.25747c0.05253,1.17719 0.09269,2.39764 0.10814,3.66444c-0.10196,13.86061 -1.80132,24.8941 -3.88381,24.8941h-7.17131c-6.04355,0 -11.71015,2.73752 -15.62486,7.34124c-2.12575,2.49961 -4.69333,4.5203 -7.5946,5.67587c-8.28979,3.29985 -51.60497,2.30804 -51.61424,2.30804c-4.65934,0 -8.73472,-4.22987 -9.31868,-8.80578c0.44492,-1.58195 1.51398,-2.86111 2.87038,-3.53776c0.8126,2.66645 3.45743,5.04247 6.4483,5.04247z" fill="#edc7a5" opacity="0.545"></path><path d="M70.69697,135.64661c0.00927,0 43.32445,0.9949 51.61424,-2.30804c2.90127,-1.15557 5.46885,-3.17626 7.5946,-5.67587c3.91471,-4.60064 9.5844,-7.34124 15.62486,-7.34124h7.17131c1.928,0 3.52231,-9.55041 3.7973,-21.94957c0.04326,1.04433 0.07415,2.12266 0.0896,3.24115c-0.08033,13.98729 -1.78896,25.16909 -3.8869,25.16909h-7.17131c-6.04355,0 -11.71015,2.73752 -15.62486,7.34124c-2.12575,2.49961 -4.69333,4.5203 -7.5946,5.67587c-8.28979,3.29985 -51.60497,2.30804 -51.61424,2.30804c-4.75203,0 -8.89847,-4.39053 -9.36812,-9.07768c0.35532,-1.37803 1.22045,-2.51505 2.32658,-3.1639c0.79407,3.05267 3.72006,5.78092 7.04154,5.78092z" fill="#ebc4a2" opacity="0.636"></path><path d="M70.69697,137.03699c0.00927,0 43.32445,0.9949 51.61424,-2.30804c2.90127,-1.15557 5.46885,-3.17626 7.5946,-5.67587c3.91471,-4.60064 9.5844,-7.34124 15.62486,-7.34124h7.17131c1.96508,0 3.58411,-9.89646 3.81893,-22.64167c0.03399,0.91148 0.05871,1.84767 0.07106,2.81785c-0.06179,14.11706 -1.77969,25.44099 -3.88999,25.44099h-7.17131c-6.04355,0 -11.71015,2.73752 -15.62486,7.34124c-2.12575,2.49961 -4.69333,4.5203 -7.5946,5.67587c-8.28979,3.29985 -51.60497,2.30804 -51.61424,2.30804c-4.84473,0 -9.06532,-4.5512 -9.41755,-9.34649c0.26881,-1.17719 0.93001,-2.16591 1.78278,-2.79004c0.77862,3.4358 3.98269,6.51937 7.63477,6.51937z" fill="#e9c19e" opacity="0.727"></path><path d="M70.69697,138.42738c0.00927,0 43.32445,0.9949 51.61424,-2.30804c2.90127,-1.15557 5.46885,-3.17626 7.5946,-5.67587c3.91471,-4.60064 9.5844,-7.34124 15.62486,-7.34124h7.17131c2.00216,0 3.64281,-10.24252 3.84056,-23.33378c0.02472,0.77862 0.04326,1.57268 0.04944,2.39147c-0.04017,14.24683 -1.76734,25.71597 -3.89308,25.71597h-7.17131c-6.04355,0 -11.71015,2.73752 -15.62486,7.34124c-2.12575,2.49961 -4.69333,4.5203 -7.5946,5.67587c-8.28979,3.29985 -51.60497,2.30804 -51.61424,2.30804c-4.93433,0 -9.22908,-4.71496 -9.4639,-9.6153c0.17921,-0.97327 0.63649,-1.81986 1.23899,-2.41309c0.76008,3.81893 4.24531,7.25473 8.228,7.25473z" fill="#e8bd9b" opacity="0.818"></path><path d="M70.69697,139.81777c0.00927,0 43.32445,0.9949 51.61424,-2.30804c2.90127,-1.15557 5.46885,-3.17626 7.5946,-5.67587c3.91471,-4.60064 9.5844,-7.34124 15.62486,-7.34124h7.17131c2.03923,0 3.70461,-10.59166 3.86527,-24.02588c0.01545,0.64576 0.02781,1.29769 0.0309,1.96817c-0.02163,14.3766 -1.75498,25.98787 -3.89617,25.98787h-7.17131c-6.04355,0 -11.71015,2.73752 -15.62486,7.34124c-2.12575,2.49961 -4.69333,4.5203 -7.5946,5.67587c-8.28979,3.29985 -51.60497,2.30804 -51.61424,2.30804c-5.02702,0 -9.39592,-4.87562 -9.51333,-9.88719c0.0896,-0.77244 0.34296,-1.47072 0.69519,-2.03923c0.74154,4.20515 4.50794,7.99627 8.81814,7.99627z" fill="#e6ba97" opacity="0.909"></path><path d="M70.69697,141.20815c0.00927,0 43.32445,0.9949 51.61424,-2.30804c2.90127,-1.15557 5.46885,-3.17626 7.5946,-5.67587c3.91471,-4.60064 9.5844,-7.34124 15.62486,-7.34124h7.17131c2.07631,0 3.7664,-10.93771 3.8869,-24.71799c0.00309,0.5129 0.01236,1.02271 0.01236,1.54487c0,14.50328 -1.74571,26.26286 -3.89617,26.26286h-7.17131c-6.04355,0 -11.71015,2.73752 -15.62486,7.34124c-2.12575,2.49961 -4.69333,4.5203 -7.5946,5.67587c-8.28979,3.29985 -51.60497,2.30804 -51.61424,2.30804c-5.11971,0 -9.56277,-5.03629 -9.56277,-10.156c0,-0.56851 0.05253,-1.12467 0.1514,-1.66537c0.71991,4.58828 4.76748,8.73163 9.40828,8.73163z" fill="#e4b794"></path></g></g></g></svg>